REM MD5 4ea9d7970562e5c6c8641739d184a50d
FILE "Street Fighter Collection (USA) (Disc 1) (Rev 1).bin" BINARY
  TRACK 01 MODE2/2352
    INDEX 01 00:00:00
  TRACK 02 AUDIO
    INDEX 00 05:10:08
    INDEX 01 05:12:08
  TRACK 03 AUDIO
    INDEX 00 06:26:10
    INDEX 01 06:28:10
  TRACK 04 AUDIO
    INDEX 00 08:13:63
    INDEX 01 08:15:63
  TRACK 05 AUDIO
    INDEX 00 10:23:25
    INDEX 01 10:25:25
  TRACK 06 AUDIO
    INDEX 00 12:17:60
    INDEX 01 12:19:60
  TRACK 07 AUDIO
    INDEX 00 14:18:34
    INDEX 01 14:20:34
  TRACK 08 AUDIO
    INDEX 00 16:14:01
    INDEX 01 16:16:01
  TRACK 09 AUDIO
    INDEX 00 17:28:14
    INDEX 01 17:30:14
  TRACK 10 AUDIO
    INDEX 00 19:22:70
    INDEX 01 19:24:70
  TRACK 11 AUDIO
    INDEX 00 21:17:43
    INDEX 01 21:19:43
  TRACK 12 AUDIO
    INDEX 00 23:15:42
    INDEX 01 23:17:42
  TRACK 13 AUDIO
    INDEX 00 24:44:05
    INDEX 01 24:46:05
  TRACK 14 AUDIO
    INDEX 00 27:01:13
    INDEX 01 27:03:13
  TRACK 15 AUDIO
    INDEX 00 28:23:71
    INDEX 01 28:25:71
  TRACK 16 AUDIO
    INDEX 00 30:21:56
    INDEX 01 30:23:56
  TRACK 17 AUDIO
    INDEX 00 31:45:46
    INDEX 01 31:47:46
  TRACK 18 AUDIO
    INDEX 00 33:14:11
    INDEX 01 33:16:11
  TRACK 19 AUDIO
    INDEX 00 34:34:13
    INDEX 01 34:36:13
  TRACK 20 AUDIO
    INDEX 00 35:06:02
    INDEX 01 35:08:02
  TRACK 21 AUDIO
    INDEX 00 35:37:69
    INDEX 01 35:39:69
  TRACK 22 AUDIO
    INDEX 00 36:09:70
    INDEX 01 36:11:70
  TRACK 23 AUDIO
    INDEX 00 36:41:71
    INDEX 01 36:43:71
  TRACK 24 AUDIO
    INDEX 00 37:13:72
    INDEX 01 37:15:72
  TRACK 25 AUDIO
    INDEX 00 37:45:72
    INDEX 01 37:47:72
  TRACK 26 AUDIO
    INDEX 00 38:17:73
    INDEX 01 38:19:73
  TRACK 27 AUDIO
    INDEX 00 38:49:74
    INDEX 01 38:51:74
  TRACK 28 AUDIO
    INDEX 00 39:21:74
    INDEX 01 39:23:74
  TRACK 29 AUDIO
    INDEX 00 39:54:00
    INDEX 01 39:56:00
  TRACK 30 AUDIO
    INDEX 00 40:26:01
    INDEX 01 40:28:01
  TRACK 31 AUDIO
    INDEX 00 40:58:02
    INDEX 01 41:00:02
  TRACK 32 AUDIO
    INDEX 00 41:30:03
    INDEX 01 41:32:03
  TRACK 33 AUDIO
    INDEX 00 42:02:04
    INDEX 01 42:04:04
  TRACK 34 AUDIO
    INDEX 00 42:34:05
    INDEX 01 42:36:05
  TRACK 35 AUDIO
    INDEX 00 43:06:06
    INDEX 01 43:08:06
  TRACK 36 AUDIO
    INDEX 00 43:38:07
    INDEX 01 43:40:07
  TRACK 37 AUDIO
    INDEX 00 43:46:09
    INDEX 01 43:48:09
  TRACK 38 AUDIO
    INDEX 00 43:53:24
    INDEX 01 43:55:24
  TRACK 39 AUDIO
    INDEX 00 44:59:65
    INDEX 01 45:01:65
  TRACK 40 AUDIO
    INDEX 00 45:35:71
    INDEX 01 45:37:71
  TRACK 41 AUDIO
    INDEX 00 46:11:48
    INDEX 01 46:13:48
  TRACK 42 AUDIO
    INDEX 00 46:19:48
    INDEX 01 46:21:48
  TRACK 43 AUDIO
    INDEX 00 46:53:14
    INDEX 01 46:55:14
  TRACK 44 AUDIO
    INDEX 00 47:18:47
    INDEX 01 47:20:47
  TRACK 45 AUDIO
    INDEX 00 47:50:41
    INDEX 01 47:52:41
  TRACK 46 AUDIO
    INDEX 00 47:57:24
    INDEX 01 47:59:24
  TRACK 47 AUDIO
    INDEX 00 48:24:23
    INDEX 01 48:26:23
  TRACK 48 AUDIO
    INDEX 00 48:41:23
    INDEX 01 48:43:23
  TRACK 49 AUDIO
    INDEX 00 49:39:24
    INDEX 01 49:41:24
  TRACK 50 AUDIO
    INDEX 00 50:26:24
    INDEX 01 50:28:24
  TRACK 51 AUDIO
    INDEX 00 50:53:25
    INDEX 01 50:55:25
  TRACK 52 AUDIO
    INDEX 00 51:31:25
    INDEX 01 51:33:25
  TRACK 53 AUDIO
    INDEX 00 52:09:26
    INDEX 01 52:11:26
  TRACK 54 AUDIO
    INDEX 00 52:56:27
    INDEX 01 52:58:27
  TRACK 55 AUDIO
    INDEX 00 53:38:28
    INDEX 01 53:40:28
  TRACK 56 AUDIO
    INDEX 00 54:47:29
    INDEX 01 54:49:29
  TRACK 57 AUDIO
    INDEX 00 56:29:73
    INDEX 01 56:31:73
  TRACK 58 AUDIO
    INDEX 00 57:05:70
    INDEX 01 57:07:70
  TRACK 59 AUDIO
    INDEX 00 57:51:39
    INDEX 01 57:53:39
  TRACK 60 AUDIO
    INDEX 00 58:36:61
    INDEX 01 58:38:61
  TRACK 61 AUDIO
    INDEX 00 59:02:45
    INDEX 01 59:04:45
  TRACK 62 AUDIO
    INDEX 00 59:57:58
    INDEX 01 59:59:58
  TRACK 63 AUDIO
    INDEX 00 60:23:42
    INDEX 01 60:25:42
  TRACK 64 AUDIO
    INDEX 00 61:15:50
    INDEX 01 61:17:50
  TRACK 65 AUDIO
    INDEX 00 61:29:42
    INDEX 01 61:31:42
  TRACK 66 AUDIO
    INDEX 00 62:28:60
    INDEX 01 62:30:60
  TRACK 67 AUDIO
    INDEX 00 62:54:44
    INDEX 01 62:56:44
  TRACK 68 AUDIO
    INDEX 00 64:04:46
    INDEX 01 64:06:46
  TRACK 69 AUDIO
    INDEX 00 64:30:30
    INDEX 01 64:32:30
  TRACK 70 AUDIO
    INDEX 00 65:27:58
    INDEX 01 65:29:58
  TRACK 71 AUDIO
    INDEX 00 65:53:42
    INDEX 01 65:55:42
  TRACK 72 AUDIO
    INDEX 00 66:48:67
    INDEX 01 66:50:67
REM LEADOUT 70:20:67
